<svg width="512" height="512" xmlns="http://www.w3.org/2000/svg">
  
  <!-- Cores -->  
  <style>
    :root {
      --cor_1: #163857;
      --cor_2: #747BE0;
      --cor_3: #ffffb9;
      --cor_4: black;
      --cor_5: silver;
      --cor_6: gold;
    
    }
  </style>

  <!-- Tabuleiro -->
  <rect x="0" y="0" width="64" height="64" fill="var(--cor_2)" />
  <rect x="0" y="64" width="64" height="64" fill="var(--cor_1)" />
  <rect x="0" y="128" width="64" height="64" fill="var(--cor_2)" />
  <rect x="0" y="192" width="64" height="64" fill="var(--cor_1)" />
  <rect x="0" y="256" width="64" height="64" fill="var(--cor_2)" />
  <rect x="0" y="320" width="64" height="64" fill="var(--cor_1)" />
  <rect x="0" y="384" width="64" height="64" fill="var(--cor_2)" />
  <rect x="0" y="448" width="64" height="64" fill="var(--cor_1)" />
  <rect x="64" y="0" width="64" height="64" fill="var(--cor_1)" />
  <rect x="64" y="64" width="64" height="64" fill="var(--cor_2)" />
  <rect x="64" y="128" width="64" height="64" fill="var(--cor_1)" />
  <rect x="64" y="192" width="64" height="64" fill="var(--cor_2)" />
  <rect x="64" y="256" width="64" height="64" fill="var(--cor_1)" />
  <rect x="64" y="320" width="64" height="64" fill="var(--cor_2)" />
  <rect x="64" y="384" width="64" height="64" fill="var(--cor_1)" />
  <rect x="64" y="448" width="64" height="64" fill="var(--cor_2)" />
  <rect x="128" y="0" width="64" height="64" fill="var(--cor_2)" />
  <rect x="128" y="64" width="64" height="64" fill="var(--cor_1)" />
  <rect x="128" y="128" width="64" height="64" fill="var(--cor_2)" />
  <rect x="128" y="192" width="64" height="64" fill="var(--cor_1)" />
  <rect x="128" y="256" width="64" height="64" fill="var(--cor_2)" />
  <rect x="128" y="320" width="64" height="64" fill="var(--cor_1)" />
  <rect x="128" y="384" width="64" height="64" fill="var(--cor_2)" />
  <rect x="128" y="448" width="64" height="64" fill="var(--cor_1)" />
  <rect x="192" y="0" width="64" height="64" fill="var(--cor_1)" />
  <rect x="192" y="64" width="64" height="64" fill="var(--cor_2)" />
  <rect x="192" y="128" width="64" height="64" fill="var(--cor_1)" />
  <rect x="192" y="192" width="64" height="64" fill="var(--cor_2)" />
  <rect x="192" y="256" width="64" height="64" fill="var(--cor_1)" />
  <rect x="192" y="320" width="64" height="64" fill="var(--cor_2)" />
  <rect x="192" y="384" width="64" height="64" fill="var(--cor_1)" />
  <rect x="192" y="448" width="64" height="64" fill="var(--cor_2)" />
  <rect x="256" y="0" width="64" height="64" fill="var(--cor_2)" />
  <rect x="256" y="64" width="64" height="64" fill="var(--cor_1)" />
  <rect x="256" y="128" width="64" height="64" fill="var(--cor_2)" />
  <rect x="256" y="192" width="64" height="64" fill="var(--cor_1)" />
  <rect x="256" y="256" width="64" height="64" fill="var(--cor_2)" />
  <rect x="256" y="320" width="64" height="64" fill="var(--cor_1)" />
  <rect x="256" y="384" width="64" height="64" fill="var(--cor_2)" />
  <rect x="256" y="448" width="64" height="64" fill="var(--cor_1)" />
  <rect x="320" y="0" width="64" height="64" fill="var(--cor_1)" />
  <rect x="320" y="64" width="64" height="64" fill="var(--cor_2)" />
  <rect x="320" y="128" width="64" height="64" fill="var(--cor_1)" />
  <rect x="320" y="192" width="64" height="64" fill="var(--cor_2)" />
  <rect x="320" y="256" width="64" height="64" fill="var(--cor_1)" />
  <rect x="320" y="320" width="64" height="64" fill="var(--cor_2)" />
  <rect x="320" y="384" width="64" height="64" fill="var(--cor_1)" />
  <rect x="320" y="448" width="64" height="64" fill="var(--cor_2)" />
  <rect x="384" y="0" width="64" height="64" fill="var(--cor_2)" />
  <rect x="384" y="64" width="64" height="64" fill="var(--cor_1)" />
  <rect x="384" y="128" width="64" height="64" fill="var(--cor_2)" />
  <rect x="384" y="192" width="64" height="64" fill="var(--cor_1)" />
  <rect x="384" y="256" width="64" height="64" fill="var(--cor_2)" />
  <rect x="384" y="320" width="64" height="64" fill="var(--cor_1)" />
  <rect x="384" y="384" width="64" height="64" fill="var(--cor_2)" />
  <rect x="384" y="448" width="64" height="64" fill="var(--cor_1)" />
  <rect x="448" y="0" width="64" height="64" fill="var(--cor_1)" />
  <rect x="448" y="64" width="64" height="64" fill="var(--cor_2)" />
  <rect x="448" y="128" width="64" height="64" fill="var(--cor_1)" />
  <rect x="448" y="192" width="64" height="64" fill="var(--cor_2)" />
  <rect x="448" y="256" width="64" height="64" fill="var(--cor_1)" />
  <rect x="448" y="320" width="64" height="64" fill="var(--cor_2)" />
  <rect x="448" y="384" width="64" height="64" fill="var(--cor_1)" />
  <rect x="448" y="448" width="64" height="64" fill="var(--cor_2)" />



  <!-- Peão 1 -->
<symbol id="peao_1" viewBox="0 0 64 64">
    <!-- boneco -->
    <g transform="translate(32,32)">
    <!-- cabeça -->
    <circle cx="0" cy="-20" r="7"/>
    
    <!-- corpo -->
    <line x1="0" y1="-13" x2="0" y2="7" stroke-width = "2"/>
    
    <!-- braços -->
    <line x1="0" y1="-7" x2="-12" y2="0" stroke-width = "2"/>
    <line x1="0" y1="-7" x2="12" y2="3" stroke-width = "2"/>
    
    <!-- pernas -->
    <line x1="0" y1="7" x2="-5" y2="27" stroke-width = "2"/>
    <line x1="0" y1="7" x2="5" y2="27" stroke-width = "2"/>

    <!-- lança -->
    <g>
      <line x1="12" y1="27" x2="12" y2="-14" stroke-width = "2"/>
      <polygon points="9,-14 15,-14 12,-21" fill = 'var(--cor_5)' stroke = 'var(--cor_5)'/>
    </g>
  </g>
  <g transform="translate(32,32)">
  <!-- escudo -->
    <path d="
      M -12 -9
      L-2 -6
      L -5 6
      L-12 10
      L-19 6
      L-22 -6
      Z
     "
    fill=""
    stroke="var(--cor_5)"
    stroke-width="1"/>
    </g>
  </symbol>


  <!-- Peão 2 -->
<symbol id="peao_2" viewBox="0 0 64 64">
    <!-- boneco -->
    <g transform="translate(32,32)">
    <!-- cabeça -->
    <circle cx="0" cy="-20" r="7"/>
    
    <!-- corpo -->
    <line x1="0" y1="-13" x2="0" y2="7" stroke-width = "2"/>
    
    <!-- braços -->
    <line x1="0" y1="-7" x2="-12" y2="0" stroke-width = "2"/>
    <line x1="0" y1="-7" x2="12" y2="3" stroke-width = "2"/>
    
    <!-- pernas -->
    <line x1="0" y1="7" x2="-5" y2="27" stroke-width = "2"/>
    <line x1="0" y1="7" x2="5" y2="27" stroke-width = "2"/>

    <!-- lança -->
    <g>
      <line x1="12" y1="27" x2="12" y2="-14" stroke-width = "2"/>
      <polygon points="9,-14 15,-14 12,-21" fill = 'var(--cor_6)' stroke = 'var(--cor_6)'/>
    </g>
  </g>
  <g transform="translate(32,32)">
  <!-- escudo -->
    <path d="
      M -12 -9
      L-2 -6
      L -5 6
      L-12 10
      L-19 6
      L-22 -6
      Z
     "
    fill=""
    stroke="var(--cor_6)"
    stroke-width="1"/>
    </g>
  </symbol>




<!-- Torre-->
<symbol id="torre" viewBox="0 0 64 64">
  
  <g transform="translate(32,32)">
    <path d="
      M -20 27
      L 20 27
      L 16 18
      L 10 18
      L 10 -20
      L 14 -20
      L 14 -27
      L 10 -27
      L 10 -23
      L 6 -23
      L 6 -27
      L 2 -27
      L 2 -23
      L -2 -23
      L -2 -27
      L -6 -27
      L -6 -23
      L -10 -23
      L -10 -27 
      L -14 -27 
      L -14 -20
      L -10 -20
      L -10 18
      L -14 18
      L -16 18
     Z
     "
    fill=""
    stroke=""
    stroke-width="1"/>
    </g>
  </symbol>



<!-- Rei 1-->
<symbol id="rei_1" viewBox="0 0 64 64">
  <g transform="translate(32,32)">
    <!-- rei-->
    <path d="
      M 0 27
      L 20 27
      Q 22 23 18 22
      Q 19.5 19 16 17
      Q 5 10 5 -10
      L 10 -10 
      Q 10 -12 7 -15
      L 0 -15
    " fill="" stroke="" stroke-width="0.2"/>
    <path d="
    M 1 -15.2
    L 1 -21
    Q  3 -21 4 -18 
    L 4 -26 
    Q 3 -23 1 -23
    Q 1 -26 4 -27 
    L 0 -27
    L 0 -15.2
    z
    " fill="var(--cor_5)" stroke="var(--cor_5)" stroke-width="0.2"/>
  <g transform="matrix(-1 0 0 1 0.2 0)">
    <path d="
      M 0 27
      L 20 27
      Q 22 23 18 22
      Q 19.5 19 16 17
      Q 5 10 5 -10
      L 10 -10 
      Q 10 -12 7 -15
      L 0 -15.2
    " fill="" stroke="" stroke-width="0.2"/>
    <path d="
    M 1 -15.2
    L 1 -21
    Q  3 -21 4 -18 
    L 4 -26 
    Q 3 -23 1 -23
    Q 1 -26 4 -27 
    L 0 -27
    L 0 -15.2
    z
    " fill="var(--cor_5)" stroke="var(--cor_5)" stroke-width="0.2"/>
  </g>
  </g>
</symbol>


<!-- Rei 2-->
<symbol id="rei_2" viewBox="0 0 64 64">
  <g transform="translate(32,32)">
    <!-- rei-->
    <path d="
      M 0 27
      L 20 27
      Q 22 23 18 22
      Q 19.5 19 16 17
      Q 5 10 5 -10
      L 10 -10 
      Q 10 -12 7 -15
      L 0 -15
    " fill="" stroke="" stroke-width="0.2"/>
    <path d="
    M 1 -15.2
    L 1 -21
    Q  3 -21 4 -18 
    L 4 -26 
    Q 3 -23 1 -23
    Q 1 -26 4 -27 
    L 0 -27
    L 0 -15.2
    z
    " fill="var(--cor_6)" stroke="var(--cor_6)" stroke-width="0.2"/>
  <g transform="matrix(-1 0 0 1 0.2 0)">
    <path d="
      M 0 27
      L 20 27
      Q 22 23 18 22
      Q 19.5 19 16 17
      Q 5 10 5 -10
      L 10 -10 
      Q 10 -12 7 -15
      L 0 -15.2
    " fill="" stroke="" stroke-width="0.2"/>
    <path d="
    M 1 -15.2
    L 1 -21
    Q  3 -21 4 -18 
    L 4 -26 
    Q 3 -23 1 -23
    Q 1 -26 4 -27 
    L 0 -27
    L 0 -15.2
    z
    " fill="var(--cor_6)" stroke="var(--cor_6)" stroke-width="0.2"/>
  </g>
  </g>
</symbol>



<!-- Dama 1-->
<symbol id="dama_1" viewBox="0 0 64 64">
  <g transform="translate(32,32)">

    <!-- bolinhas-->
  <circle cx="0" cy="-24" r="2" fill="" stroke="" stroke-width="0.2"/>
  <circle cx="0" cy="-17" r="5" fill="var(--cor_5)" stroke="var(--cor_5)" stroke-width="0.2"/>
    
    <!-- parte de baixo -->
    <path d="
      M 0 27
      L 20 27
      Q 22 23 18 22
      Q 19.5 19 16 17
      Q 5 10 5 0
      L 0 0 
      L 0 27
      L 0 0 
    " fill="" stroke="" stroke-width="0.2"/>

    <!-- parte de cima -->
    <path d="
      M 5 -4
      Q 5 -15 9 -18
      Q 11 -22 7 -20
      Q 5.55 -19.2 5 -18
      C 3 -15 2 -19 0 -19
      L 0 -4
      z
    " fill="" stroke="" stroke-width="0.2"/>

    <!-- detalhe do meio -->
    <path d="
      M 0 0 
      L 8 0
      Q 10 -1 8 -2
      L 0 -2
      L 0 0
      L 0 -2
      L 6.5 -2
      Q 8 -3 6.5 -4
      L 0 -4
    " fill="var(--cor_5)" stroke="var(--cor_5)" stroke-width="0.4"/>

  <!-- reflexo -->
  <g transform="matrix(-1 0 0 1 0.2 0)">
    <path d="
      M 5 -4
      Q 5 -15 9 -18
      Q 11 -22 7 -20
      Q 5.55 -19.2 5 -18
      C 3 -15 2 -19 0 -19
      L 0 -4
      z
    " fill="" stroke="" stroke-width="0.2"/>
    <path d="
          M 0 27
      L 20 27
      Q 22 23 18 22
      Q 19.5 19 16 17
      Q 5 10 5 0
      L 0 0 
      L 0 27
      L 0 0 
    " fill="" stroke="" stroke-width="0.2"/>

      <path d="
      M 0 0 
      L 8 0
      Q 10 -1 8 -2
      L 0 -2
      L 0 0
      L 0 -2
      L 6.5 -2
      Q 8 -3 6.5 -4
      L 0 -4
    " fill="var(--cor_5)" stroke="var(--cor_5)" stroke-width="0.4"/>
      </g>
        </g>
</symbol>


<!-- Dama 2-->
<symbol id="dama_2" viewBox="0 0 64 64">
  <g transform="translate(32,32)">

    <!-- bolinhas-->
  <circle cx="0" cy="-24" r="2" fill="" stroke="" stroke-width="0.2"/>
  <circle cx="0" cy="-17" r="5" fill="var(--cor_6)" stroke="var(--cor_6)" stroke-width="0.2"/>
    
    <!-- parte de baixo -->
    <path d="
      M 0 27
      L 20 27
      Q 22 23 18 22
      Q 19.5 19 16 17
      Q 5 10 5 0
      L 0 0 
      L 0 27
      L 0 0 
    " fill="" stroke="" stroke-width="0.2"/>

    <!-- parte de cima -->
    <path d="
      M 5 -4
      Q 5 -15 9 -18
      Q 11 -22 7 -20
      Q 5.55 -19.2 5 -18
      C 3 -15 2 -19 0 -19
      L 0 -4
      z
    " fill="" stroke="" stroke-width="0.2"/>

    <!-- detalhe do meio -->
    <path d="
      M 0 0 
      L 8 0
      Q 10 -1 8 -2
      L 0 -2
      L 0 0
      L 0 -2
      L 6.5 -2
      Q 8 -3 6.5 -4
      L 0 -4
    " fill="var(--cor_6)" stroke="var(--cor_6)" stroke-width="0.4"/>

  <!-- reflexo -->
  <g transform="matrix(-1 0 0 1 0.2 0)">
    <path d="
      M 5 -4
      Q 5 -15 9 -18
      Q 11 -22 7 -20
      Q 5.55 -19.2 5 -18
      C 3 -15 2 -19 0 -19
      L 0 -4
      z
    " fill="" stroke="" stroke-width="0.2"/>
    <path d="
          M 0 27
      L 20 27
      Q 22 23 18 22
      Q 19.5 19 16 17
      Q 5 10 5 0
      L 0 0 
      L 0 27
      L 0 0 
    " fill="" stroke="" stroke-width="0.2"/>

      <path d="
      M 0 0 
      L 8 0
      Q 10 -1 8 -2
      L 0 -2
      L 0 0
      L 0 -2
      L 6.5 -2
      Q 8 -3 6.5 -4
      L 0 -4
    " fill="var(--cor_6)" stroke="var(--cor_6)" stroke-width="0.4"/>
      </g>
        </g>
</symbol>



  <!-- Bispo 1 -->
<symbol id="bispo_1" viewBox="0 0 64 64">
    <!-- boneco -->
    <g transform="translate(32,32)">

    <!-- cabeça -->
    <circle cx="0" cy="12" r="8"/>
    
    <!-- corpo -->
    <line x1="0" y1="20" x2="0" y2="24" stroke-width = "1"/>
    
    <!-- braços -->
    <line x1="0" y1="22" x2="2.2" y2="23" stroke-width = "1"/>
    <line x1="0" y1="22" x2="-2.2" y2="23" stroke-width = "1"/>
    
    <!-- pernas -->
    <line x1="0" y1="24" x2="-2" y2="27" stroke-width = "1"/>
    <line x1="0" y1="24" x2="2" y2="27" stroke-width = "1"/>
  
    <!-- chapéu -->
    <path d="
      M -9 9
      Q 0 6 9 9
      L 12 -3 
      Q 9 -20 0 -27
      Q -9 -20 -12 -3
      L -9 9
    " fill="var(--cor_5)" stroke="var(--cor_5)" stroke-width="0.2"/>
    
    <!-- faixas -->
    <path d="
      M -9.3 8
      Q 0 5 9.3 8
      L 10.6 3
      Q 0 0 -10.6 3
      Z
    " fill="" stroke="" stroke-width="0.2"/>

    <path d="
      M -3 6
      L 3 6
      L 3 -24.3
      Q 1.5 -26 0 -27
      Q -1.5 -26 -3 -24.3
      
    " fill="" stroke="" stroke-width="0.2"/>

    <!-- cruz -->

    <path d="
      M 0.5 -3
      L 0.5 -7 
      L 2 -7
      L 2 -8
      L 0.5 -8
      L 0.5 -10
      L -0.5 -10
      L -0.5 -8
      L -2 -8
      L -2 -7
      L -0.5 -7
      L -0.5 -3

    " fill="var(--cor_5)" stroke="var(--cor_5)" stroke-width="0.2"/>
  </g>
  </symbol>


  <!-- Bispo 2 -->
<symbol id="bispo_2" viewBox="0 0 64 64">
    <!-- boneco -->
    <g transform="translate(32,32)">

    <!-- cabeça -->
    <circle cx="0" cy="12" r="8"/>
    
    <!-- corpo -->
    <line x1="0" y1="20" x2="0" y2="24" stroke-width = "1"/>
    
    <!-- braços -->
    <line x1="0" y1="22" x2="2.2" y2="23" stroke-width = "1"/>
    <line x1="0" y1="22" x2="-2.2" y2="23" stroke-width = "1"/>
    
    <!-- pernas -->
    <line x1="0" y1="24" x2="-2" y2="27" stroke-width = "1"/>
    <line x1="0" y1="24" x2="2" y2="27" stroke-width = "1"/>
  
    <!-- chapéu -->
    <path d="
      M -9 9
      Q 0 6 9 9
      L 12 -3 
      Q 9 -20 0 -27
      Q -9 -20 -12 -3
      L -9 9
    " fill="var(--cor_6)" stroke="var(--cor_6)" stroke-width="0.2"/>
    
    <!-- faixas -->
    <path d="
      M -9.3 8
      Q 0 5 9.3 8
      L 10.6 3
      Q 0 0 -10.6 3
      Z
    " fill="" stroke="" stroke-width="0.2"/>

    <path d="
      M -3 6
      L 3 6
      L 3 -24.3
      Q 1.5 -26 0 -27
      Q -1.5 -26 -3 -24.3
      
    " fill="" stroke="" stroke-width="0.2"/>

    <!-- cruz -->

    <path d="
      M 0.5 -3
      L 0.5 -7 
      L 2 -7
      L 2 -8
      L 0.5 -8
      L 0.5 -10
      L -0.5 -10
      L -0.5 -8
      L -2 -8
      L -2 -7
      L -0.5 -7
      L -0.5 -3

    " fill="var(--cor_6)" stroke="var(--cor_6)" stroke-width="0.2"/>
  </g>
  </symbol>



<!-- Cavalo 1 -->
<symbol id="cavalo_1" viewBox="0 0 64 64">
    <!-- base -->
    <g transform="translate(32,32)">

    <!-- base de baixo -->
    <path d="
      M -20 27
      L 20 27
      Q 19 22 18 22
      L -18 22
      Q -19 22 -20 27
    " fill="var(--cor_5)" stroke="var(--cor_5)" stroke-width="0.2"/>
    

    <!-- base de cima -->
    <path d="
      M 18 22
      C 19 17 15 19 15 15
      L -15 15
      C -15 19 -19 17 -18 22
    " stroke-width="0.2"/>

        <!-- detalhe de cima -->
    <path d="
      M 15 15
      Q 16 14.5 15 14
      L -15 14
      Q -16 14.5 -15 15
    " fill="var(--cor_5)" stroke="var(--cor_5)" stroke-width="0.2"/>
    
    <!-- cavalo -->
    <path d="
      M 13 14
      C 8 4 29 -24 -3 -27
      L -4 -25
      Q -1 -24 -1 -20
      L -6 -21
      L -20 -12
      L -17 -7
      L -11 -8
      L -11.5 -9.5
      L -8.5 -10.5
      Q -8 -8 -1 -9.5
      C -1 -2 -13 -5 -13 14

    " stroke-width="0.2"/>
    
    <!-- crina  -->
    <path d="
      M 13 14
      C 8 4 29 -24 -3 -27
      L -4 -25
      C 27 -22 6 4  11 14
    " fill="var(--cor_5)" stroke="var(--cor_5)" stroke-width="0.2"/>

  </g>
  </symbol>  


  <!-- Cavalo 2 -->
<symbol id="cavalo_2" viewBox="0 0 64 64">
    <!-- base -->
    <g transform="translate(32,32)">

    <!-- base de baixo -->
    <path d="
      M -20 27
      L 20 27
      Q 19 22 18 22
      L -18 22
      Q -19 22 -20 27
    " fill="var(--cor_6)" stroke="var(--cor_6)" stroke-width="0.2"/>
    
    <!-- base de cima -->
    <path d="
      M 18 22
      C 19 17 15 19 15 15
      L -15 15
      C -15 19 -19 17 -18 22
    " stroke-width="0.2"/>

    <!-- detalhe de cima -->
    <path d="
      M 15 15
      Q 16 14.5 15 14
      L -15 14
      Q -16 14.5 -15 15
    " fill="var(--cor_6)" stroke="var(--cor_6)" stroke-width="0.2"/>
    
    <!-- cavalo -->
    <path d="
      M 13 14
      C 8 4 29 -24 -3 -27
      L -4 -25
      Q -1 -24 -1 -20
      L -6 -21
      L -20 -12
      L -17 -7
      L -11 -8
      L -11.5 -9.5
      L -8.5 -10.5
      Q -8 -8 -1 -9.5
      C -1 -2 -13 -5 -13 14

    " stroke-width="0.2"/>

    <!-- crina  -->
    <path d="
      M 13 14
      C 8 4 29 -24 -3 -27
      L -4 -25
      C 27 -22 6 4  11 14
    " fill="var(--cor_6)" stroke="var(--cor_6)" stroke-width="0.2"/>

  </g>
  </symbol>

  

  <!--COLOCANDO PEÇAS NO TABULEIRO -->
  
  <!--PEÕES-->  
  <use href="#peao_1" x="0" y="384" width="64" height="64" stroke="var(--cor_3)" fill = "var(--cor_3)"/>
  <use href="#peao_1" x="64" y="384" width="64" height="64" stroke="var(--cor_3)" fill = "var(--cor_3)" />
  <use href="#peao_1" x="128" y="384" width="64" height="64" stroke="var(--cor_3)" fill = "var(--cor_3)" />
  <use href="#peao_1" x="192" y="384" width="64" height="64" stroke="var(--cor_3)" fill = "var(--cor_3)"/>
  <use href="#peao_1" x="256" y="384" width="64" height="64" stroke="var(--cor_3)" fill = "var(--cor_3)" />
  <use href="#peao_1" x="320" y="384" width="64" height="64" stroke="var(--cor_3)" fill = "var(--cor_3)" />
  <use href="#peao_1" x="384" y="384" width="64" height="64" stroke="var(--cor_3)" fill = "var(--cor_3)"/>
  <use href="#peao_1" x="448" y="384" width="64" height="64" stroke="var(--cor_3)" fill = "var(--cor_3)" />

  <use href="#peao_2"
       transform="translate(0,64) matrix(-1 0 0 1 64 0)"
       width="64" height="64"
       stroke="var(--cor_4)" fill="var(--cor_4)"/>
  <use href="#peao_2"
       transform="translate(64,64) matrix(-1 0 0 1 64 0)"
       width="64" height="64"
       stroke="var(--cor_4)" fill="var(--cor_4)"/>
  <use href="#peao_2"
       transform="translate(128,64) matrix(-1 0 0 1 64 0)"
       width="64" height="64"
       stroke="var(--cor_4)" fill="var(--cor_4)"/>
  <use href="#peao_2"
       transform="translate(192,64) matrix(-1 0 0 1 64 0)"
       width="64" height="64"
       stroke="var(--cor_4)" fill="var(--cor_4)"/>
  <use href="#peao_2"
       transform="translate(256,64) matrix(-1 0 0 1 64 0)"
       width="64" height="64"
       stroke="var(--cor_4)" fill="var(--cor_4)"/>
  <use href="#peao_2"
       transform="translate(320,64) matrix(-1 0 0 1 64 0)"
       width="64" height="64"
       stroke="var(--cor_4)" fill="var(--cor_4)"/>
  <use href="#peao_2"
       transform="translate(384,64) matrix(-1 0 0 1 64 0)"
       width="64" height="64"
       stroke="var(--cor_4)" fill="var(--cor_4)"/>
  <use href="#peao_2"
       transform="translate(448,64) matrix(-1 0 0 1 64 0)"
       width="64" height="64"
       stroke="var(--cor_4)" fill="var(--cor_4)"/>

<!-- TORRES -->
  <use href="#torre" x="0" y="0" width="64" height="64" stroke="var(--cor_4)" fill = "var(--cor_4)"/>
  <use href="#torre" x="448" y="0" width="64" height="64" stroke="var(--cor_4)" fill = "var(--cor_4)" />
  <use href="#torre" x="0" y="448" width="64" height="64" stroke="var(--cor_3)" fill = "var(--cor_3)"/>
  <use href="#torre" x="448" y="448" width="64" height="64" stroke="var(--cor_3)" fill = "var(--cor_3)" />

<!-- REIS -->
<use href="#rei_1" x="256" y="448" width="64" height="64" stroke="var(--cor_3)" fill="var(--cor_3)"/>
<use href="#rei_2" x="256" y="0" width="64" height="64" stroke="var(--cor_4)" fill="var(--cor_4)"/>

<!-- DAMAS -->
<use href="#dama_1" x="192" y="448" width="64" height="64" stroke="var(--cor_3)" fill="var(--cor_3)"/>
<use href="#dama_2" x="192" y="0" width="64" height="64" stroke="var(--cor_4)" fill="var(--cor_4)"/>

<!-- BISPOS -->
  <use href="#bispo_2" x="128" y="0" width="64" height="64" stroke="var(--cor_4)" fill = "var(--cor_4)"/>
  <use href="#bispo_2" x="320" y="0" width="64" height="64" stroke="var(--cor_4)" fill = "var(--cor_4)" />
  <use href="#bispo_1" x="128" y="448" width="64" height="64" stroke="var(--cor_3)" fill = "var(--cor_3)"/>
  <use href="#bispo_1" x="320" y="448" width="64" height="64" stroke="var(--cor_3)" fill = "var(--cor_3)" />

<!-- CAVALOS -->
  <use href="#cavalo_2" x="0" y="0" transform="translate(64,0) matrix(-1 0 0 1 64 0)" width="64" height="64" stroke="var(--cor_4)" fill = "var(--cor_4)"/>
  <use href="#cavalo_2" x="320" y="0" transform="translate(384,0) matrix(-1 0 0 1 384 0)" width="64" height="64" stroke="var(--cor_4)" fill = "var(--cor_4)" />
  <use href="#cavalo_1" x="64" y="448" width="64" height="64" stroke="var(--cor_3)" fill = "var(--cor_3)"/>
  <use href="#cavalo_1" x="384" y="448" width="64" height="64" stroke="var(--cor_3)" fill = "var(--cor_3)" />
</svg>